# xmcd
#
# Track frame offsets:
#	150
#	11701
#	30346
#	46183
#	54499
#	65517
#	79158
#	97512
#	115775
#	136061
#	153426
#	166995
#	182536
#	197345
#	209333
#	219947
#	235717
#	253090
#	271957
#	291379
#	303054
#	319448
#
# Disc length: 4490 seconds
#
# Revision: 1
# Processed by: cddbd v1.5.2PL0 Copyright (c) Steve Scherf et al.
# Submitted via: audiograbber 1.83.01
#
DISCID=20118816
DTITLE=Various Artist - CDXMAS 1024
DYEAR=2008
DGENRE=Christmas
TTITLE0=Elvis Presley with Martina McBride - Blue Christmas
TTITLE1=Kenny Chesney - Silver Bells
TTITLE2=Kellie Pickler - Santa Baby
TTITLE3=George Strait - We Wish You A Merry Christmas
TTITLE4=Julianna Hough - Jingle Bell Rock
TTITLE5=Carter's Chord - O Come, O Come Emmanuel
TTITLE6=Little Texas - Every Day's Like Christmas
TTITLE7=Andy Griggs - Please Come Home For Christmas
TTITLE8=Wynn Varble - It's The Holidays
TTITLE9=Kacey Jones - I'm Down To My Christmas Underwear
TTITLE10=Emma Jacob with Jeremy McComb - Baby It's Cold Outside
TTITLE11=Paul Parr - Christmas In The Desert
TTITLE12=Bulls Gap - Country Boy's Christmas
TTITLE13=Dan Tyler - Happy Christmas
TTITLE14=Benita Hill - Holidays At Our House
TTITLE15=Chuck McCabe - Holidaze
TTITLE16=Terri Hollowell - Six Weeks Every Summer-Christmas Every Other Year
TTITLE17=Robert Martin - The Reason For The Season
TTITLE18=Melanie Walker - What The King Don't Know
TTITLE19=Father Gabriel - 2-Step Texas Reindeer
TTITLE20=Doug Wayne - Almost Tjme For Christmas
TTITLE21=Doug Wayne - That Star Still Shines
EXTD=
EXTT0=
EXTT1=
EXTT2=
EXTT3=
EXTT4=
EXTT5=
EXTT6=
EXTT7=
EXTT8=
EXTT9=
EXTT10=
EXTT11=
EXTT12=
EXTT13=
EXTT14=
EXTT15=
EXTT16=
EXTT17=
EXTT18=
EXTT19=
EXTT20=
EXTT21=
PLAYORDER=
